<svg width="424" height="530" viewBox="0 0 424 530" fill="none" xmlns="http://www.w3.org/2000/svg">
  <rect width="424" height="530" fill="#080808"/>

  <!-- Ambient glow -->
  <ellipse cx="212" cy="290" rx="180" ry="140" fill="rgba(0,255,136,0.04)"/>

  <!-- Drop shadow under laptop -->
  <ellipse cx="212" cy="468" rx="155" ry="10" fill="rgba(0,0,0,0.6)"/>

  <!-- ======= LAPTOP LID ======= -->
  <!-- Outer lid frame - space grey -->
  <rect x="42" y="52" width="340" height="218" rx="10" fill="#1c1c1e"/>
  <!-- Lid edge highlight top -->
  <rect x="42" y="52" width="340" height="3" rx="2" fill="rgba(255,255,255,0.08)"/>
  <!-- Lid edge sides -->
  <rect x="42" y="52" width="2" height="218" rx="1" fill="rgba(255,255,255,0.05)"/>
  <rect x="380" y="52" width="2" height="218" rx="1" fill="rgba(255,255,255,0.03)"/>

  <!-- Screen bezel (inner black) -->
  <rect x="52" y="60" width="320" height="202" rx="7" fill="#0a0a0a"/>

  <!-- Notch -->
  <rect x="188" y="60" width="48" height="12" rx="0 0 6 6" fill="#1c1c1e"/>
  <circle cx="212" cy="65" r="2.5" fill="#2a2a2a"/>
  <circle cx="212" cy="65" r="1.2" fill="#1a1a1a"/>

  <!-- ======= SCREEN CONTENT — Campaign Automation ======= -->
  <rect x="52" y="72" width="320" height="190" fill="#0d0d0d"/>

  <!-- Top bar -->
  <rect x="52" y="72" width="320" height="28" fill="#141414"/>
  <circle cx="70" cy="86" r="4.5" fill="#ff5f57"/>
  <circle cx="84" cy="86" r="4.5" fill="#ffbd2e"/>
  <circle cx="98" cy="86" r="4.5" fill="#28c840"/>
  <rect x="140" y="80" width="144" height="12" rx="6" fill="#1e1e1e"/>
  <text x="212" y="90" font-family="-apple-system, sans-serif" font-size="7" fill="rgba(255,255,255,0.4)" text-anchor="middle">Campaign Builder</text>

  <!-- Sidebar -->
  <rect x="52" y="100" width="60" height="162" fill="#111"/>
  <rect x="56" y="108" width="52" height="20" rx="4" fill="rgba(0,255,136,0.12)"/>
  <text x="82" y="121" font-family="-apple-system, sans-serif" font-size="6.5" fill="#00ff88" text-anchor="middle">Campaigns</text>
  <rect x="58" y="134" width="38" height="6" rx="2" fill="rgba(255,255,255,0.1)"/>
  <rect x="58" y="146" width="44" height="6" rx="2" fill="rgba(255,255,255,0.07)"/>
  <rect x="58" y="158" width="36" height="6" rx="2" fill="rgba(255,255,255,0.07)"/>
  <rect x="58" y="170" width="42" height="6" rx="2" fill="rgba(255,255,255,0.07)"/>
  <rect x="58" y="182" width="38" height="6" rx="2" fill="rgba(255,255,255,0.07)"/>

  <!-- Main content -->
  <rect x="112" y="100" width="260" height="162" fill="#0d0d0d"/>

  <!-- Section title -->
  <text x="120" y="115" font-family="-apple-system, sans-serif" font-size="8" fill="rgba(255,255,255,0.7)" font-weight="600">Active Sequences</text>
  <!-- New button -->
  <rect x="320" y="106" width="44" height="14" rx="3" fill="#00ff88"/>
  <text x="342" y="116" font-family="-apple-system, sans-serif" font-size="6.5" fill="#000" text-anchor="middle" font-weight="600">+ New</text>

  <!-- Campaign rows -->
  <!-- Row header -->
  <rect x="112" y="122" width="260" height="1" fill="rgba(255,255,255,0.06)"/>
  <text x="120" y="131" font-family="-apple-system, sans-serif" font-size="6" fill="rgba(255,255,255,0.3)">CAMPAIGN</text>
  <text x="254" y="131" font-family="-apple-system, sans-serif" font-size="6" fill="rgba(255,255,255,0.3)">STEPS</text>
  <text x="306" y="131" font-family="-apple-system, sans-serif" font-size="6" fill="rgba(255,255,255,0.3)">STATUS</text>
  <rect x="112" y="134" width="260" height="1" fill="rgba(255,255,255,0.06)"/>

  <!-- Campaign row 1 — active -->
  <rect x="112" y="135" width="260" height="22" fill="rgba(0,255,136,0.04)"/>
  <rect x="116" y="141" width="5" height="5" rx="1" fill="#00ff88"/>
  <text x="126" y="148" font-family="-apple-system, sans-serif" font-size="7" fill="rgba(255,255,255,0.75)">SaaS Founders Outreach</text>
  <!-- Steps pills -->
  <rect x="246" y="139" width="10" height="10" rx="5" fill="#00ff88"/>
  <text x="251" y="147" font-family="-apple-system, sans-serif" font-size="6" fill="#000" text-anchor="middle" font-weight="600">5</text>
  <!-- Status -->
  <rect x="298" y="139" width="32" height="10" rx="3" fill="rgba(0,255,136,0.2)"/>
  <text x="314" y="147" font-family="-apple-system, sans-serif" font-size="6" fill="#00ff88" text-anchor="middle">LIVE</text>
  <rect x="112" y="157" width="260" height="1" fill="rgba(255,255,255,0.04)"/>

  <!-- Campaign row 2 -->
  <rect x="112" y="158" width="260" height="22" fill="transparent"/>
  <rect x="116" y="164" width="5" height="5" rx="1" fill="#00ff88"/>
  <text x="126" y="171" font-family="-apple-system, sans-serif" font-size="7" fill="rgba(255,255,255,0.75)">E-commerce Decision Makers</text>
  <rect x="246" y="162" width="10" height="10" rx="5" fill="#00ff88"/>
  <text x="251" y="170" font-family="-apple-system, sans-serif" font-size="6" fill="#000" text-anchor="middle" font-weight="600">4</text>
  <rect x="298" y="162" width="32" height="10" rx="3" fill="rgba(0,255,136,0.2)"/>
  <text x="314" y="170" font-family="-apple-system, sans-serif" font-size="6" fill="#00ff88" text-anchor="middle">LIVE</text>
  <rect x="112" y="180" width="260" height="1" fill="rgba(255,255,255,0.04)"/>

  <!-- Campaign row 3 — paused -->
  <rect x="112" y="181" width="260" height="22" fill="transparent"/>
  <rect x="116" y="187" width="5" height="5" rx="1" fill="rgba(255,255,255,0.2)"/>
  <text x="126" y="194" font-family="-apple-system, sans-serif" font-size="7" fill="rgba(255,255,255,0.4)">Agency Owners — Q2</text>
  <rect x="246" y="185" width="10" height="10" rx="5" fill="rgba(255,255,255,0.15)"/>
  <text x="251" y="193" font-family="-apple-system, sans-serif" font-size="6" fill="rgba(255,255,255,0.5)" text-anchor="middle">6</text>
  <rect x="294" y="185" width="38" height="10" rx="3" fill="rgba(255,255,255,0.07)"/>
  <text x="313" y="193" font-family="-apple-system, sans-serif" font-size="6" fill="rgba(255,255,255,0.3)" text-anchor="middle">PAUSED</text>
  <rect x="112" y="203" width="260" height="1" fill="rgba(255,255,255,0.04)"/>

  <!-- Sequence steps visual for active campaign -->
  <rect x="112" y="207" width="260" height="45" fill="#111"/>
  <text x="120" y="218" font-family="-apple-system, sans-serif" font-size="6.5" fill="rgba(255,255,255,0.4)">SaaS Founders Outreach — Sequence</text>

  <!-- Step nodes -->
  <!-- Day 1 -->
  <circle cx="134" cy="237" r="8" fill="#00ff88"/>
  <text x="134" y="240" font-family="-apple-system, sans-serif" font-size="6" fill="#000" text-anchor="middle" font-weight="700">1</text>
  <line x1="142" y1="237" x2="162" y2="237" stroke="rgba(0,255,136,0.5)" stroke-width="1" stroke-dasharray="3,2"/>
  <!-- Day 3 -->
  <circle cx="170" cy="237" r="8" fill="#00ff88"/>
  <text x="170" y="240" font-family="-apple-system, sans-serif" font-size="6" fill="#000" text-anchor="middle" font-weight="700">2</text>
  <line x1="178" y1="237" x2="198" y2="237" stroke="rgba(0,255,136,0.5)" stroke-width="1" stroke-dasharray="3,2"/>
  <!-- Day 5 -->
  <circle cx="206" cy="237" r="8" fill="#00ff88"/>
  <text x="206" y="240" font-family="-apple-system, sans-serif" font-size="6" fill="#000" text-anchor="middle" font-weight="700">3</text>
  <line x1="214" y1="237" x2="234" y2="237" stroke="rgba(0,255,136,0.5)" stroke-width="1" stroke-dasharray="3,2"/>
  <!-- Day 7 -->
  <circle cx="242" cy="237" r="8" fill="rgba(0,255,136,0.3)" stroke="#00ff88" stroke-width="1"/>
  <text x="242" y="240" font-family="-apple-system, sans-serif" font-size="6" fill="#00ff88" text-anchor="middle" font-weight="700">4</text>
  <line x1="250" y1="237" x2="270" y2="237" stroke="rgba(0,255,136,0.3)" stroke-width="1" stroke-dasharray="3,2"/>
  <!-- Day 10 -->
  <circle cx="278" cy="237" r="8" fill="rgba(0,255,136,0.15)" stroke="rgba(0,255,136,0.4)" stroke-width="1"/>
  <text x="278" y="240" font-family="-apple-system, sans-serif" font-size="6" fill="rgba(0,255,136,0.6)" text-anchor="middle" font-weight="700">5</text>

  <!-- Day labels -->
  <text x="134" y="250" font-family="-apple-system, sans-serif" font-size="5.5" fill="rgba(255,255,255,0.3)" text-anchor="middle">D1</text>
  <text x="170" y="250" font-family="-apple-system, sans-serif" font-size="5.5" fill="rgba(255,255,255,0.3)" text-anchor="middle">D3</text>
  <text x="206" y="250" font-family="-apple-system, sans-serif" font-size="5.5" fill="rgba(255,255,255,0.3)" text-anchor="middle">D5</text>
  <text x="242" y="250" font-family="-apple-system, sans-serif" font-size="5.5" fill="rgba(255,255,255,0.3)" text-anchor="middle">D7</text>
  <text x="278" y="250" font-family="-apple-system, sans-serif" font-size="5.5" fill="rgba(255,255,255,0.3)" text-anchor="middle">D10</text>

  <!-- Stats strip -->
  <rect x="306" y="220" width="58" height="28" rx="3" fill="rgba(0,255,136,0.06)" stroke="rgba(0,255,136,0.2)" stroke-width="0.5"/>
  <text x="335" y="231" font-family="-apple-system, sans-serif" font-size="6" fill="rgba(255,255,255,0.4)" text-anchor="middle">Sent today</text>
  <text x="335" y="243" font-family="-apple-system, sans-serif" font-size="9" fill="#00ff88" text-anchor="middle" font-weight="700">247</text>

  <!-- ======= HINGE ======= -->
  <rect x="36" y="270" width="352" height="8" rx="0" fill="#111"/>
  <rect x="36" y="270" width="352" height="2" fill="#222"/>
  <rect x="36" y="276" width="352" height="2" fill="#0a0a0a"/>

  <!-- ======= KEYBOARD BASE ======= -->
  <rect x="28" y="278" width="368" height="108" rx="0 0 12 12" fill="#1c1c1e"/>
  <rect x="28" y="278" width="368" height="1" fill="rgba(255,255,255,0.06)"/>
  <rect x="28" y="384" width="368" height="2" rx="1" fill="#111"/>

  <!-- Keyboard keys row 1 -->
  <rect x="50" y="288" width="18" height="10" rx="2" fill="#262626"/>
  <rect x="72" y="288" width="18" height="10" rx="2" fill="#262626"/>
  <rect x="94" y="288" width="18" height="10" rx="2" fill="#262626"/>
  <rect x="116" y="288" width="18" height="10" rx="2" fill="#262626"/>
  <rect x="138" y="288" width="18" height="10" rx="2" fill="#262626"/>
  <rect x="160" y="288" width="18" height="10" rx="2" fill="#262626"/>
  <rect x="182" y="288" width="18" height="10" rx="2" fill="#262626"/>
  <rect x="204" y="288" width="18" height="10" rx="2" fill="#262626"/>
  <rect x="226" y="288" width="18" height="10" rx="2" fill="#262626"/>
  <rect x="248" y="288" width="18" height="10" rx="2" fill="#262626"/>
  <rect x="270" y="288" width="18" height="10" rx="2" fill="#262626"/>
  <rect x="292" y="288" width="18" height="10" rx="2" fill="#262626"/>
  <rect x="314" y="288" width="28" height="10" rx="2" fill="#262626"/>

  <!-- Keyboard keys row 2 -->
  <rect x="50" y="302" width="26" height="10" rx="2" fill="#262626"/>
  <rect x="80" y="302" width="18" height="10" rx="2" fill="#262626"/>
  <rect x="102" y="302" width="18" height="10" rx="2" fill="#262626"/>
  <rect x="124" y="302" width="18" height="10" rx="2" fill="#262626"/>
  <rect x="146" y="302" width="18" height="10" rx="2" fill="#262626"/>
  <rect x="168" y="302" width="18" height="10" rx="2" fill="#262626"/>
  <rect x="190" y="302" width="18" height="10" rx="2" fill="#262626"/>
  <rect x="212" y="302" width="18" height="10" rx="2" fill="#262626"/>
  <rect x="234" y="302" width="18" height="10" rx="2" fill="#262626"/>
  <rect x="256" y="302" width="18" height="10" rx="2" fill="#262626"/>
  <rect x="278" y="302" width="18" height="10" rx="2" fill="#262626"/>
  <rect x="300" y="302" width="42" height="10" rx="2" fill="#262626"/>

  <!-- Keyboard keys row 3 -->
  <rect x="50" y="316" width="30" height="10" rx="2" fill="#262626"/>
  <rect x="84" y="316" width="18" height="10" rx="2" fill="#262626"/>
  <rect x="106" y="316" width="18" height="10" rx="2" fill="#262626"/>
  <rect x="128" y="316" width="18" height="10" rx="2" fill="#262626"/>
  <rect x="150" y="316" width="18" height="10" rx="2" fill="#262626"/>
  <rect x="172" y="316" width="18" height="10" rx="2" fill="#262626"/>
  <rect x="194" y="316" width="18" height="10" rx="2" fill="#262626"/>
  <rect x="216" y="316" width="18" height="10" rx="2" fill="#262626"/>
  <rect x="238" y="316" width="18" height="10" rx="2" fill="#262626"/>
  <rect x="260" y="316" width="18" height="10" rx="2" fill="#262626"/>
  <rect x="282" y="316" width="60" height="10" rx="2" fill="#262626"/>

  <!-- Space bar row -->
  <rect x="50" y="330" width="22" height="10" rx="2" fill="#262626"/>
  <rect x="76" y="330" width="22" height="10" rx="2" fill="#262626"/>
  <rect x="102" y="330" width="22" height="10" rx="2" fill="#262626"/>
  <rect x="128" y="330" width="140" height="10" rx="2" fill="#2a2a2a"/>
  <rect x="272" y="330" width="22" height="10" rx="2" fill="#262626"/>
  <rect x="298" y="330" width="22" height="10" rx="2" fill="#262626"/>
  <rect x="324" y="330" width="18" height="10" rx="2" fill="#262626"/>

  <!-- Trackpad -->
  <rect x="162" y="348" width="100" height="62" rx="6" fill="#212121" stroke="rgba(255,255,255,0.05)" stroke-width="0.5"/>
</svg>
