<svg width="424" height="530" viewBox="0 0 424 530" fill="none" xmlns="http://www.w3.org/2000/svg">
  <defs>
    <style>
      @keyframes blink  { 0%,100%{opacity:1} 50%{opacity:0.12} }
      @keyframes ring   { 0%,100%{opacity:0.2} 50%{opacity:0.55} }
      .pulse-dot  { animation: blink 1.4s ease-in-out infinite; }
      .pulse-ring { animation: ring  1.4s ease-in-out infinite; }
    </style>
    <pattern id="g2" x="0" y="0" width="32" height="32" patternUnits="userSpaceOnUse">
      <path d="M32 0L0 0 0 32" fill="none" stroke="rgba(255,255,255,0.022)" stroke-width="0.5"/>
    </pattern>
  </defs>

  <!-- Background -->
  <rect width="424" height="530" fill="#080808"/>
  <rect width="424" height="530" fill="url(#g2)"/>
  <rect x="0" y="0" width="424" height="2" fill="#00ff66"/>

  <!-- HEADER -->
  <rect x="0" y="2" width="424" height="60" fill="#0c0c0c"/>
  <rect x="0" y="61" width="424" height="1" fill="rgba(0,255,102,0.1)"/>
  <rect x="18" y="14" width="30" height="30" rx="6" fill="rgba(0,255,102,0.06)" stroke="rgba(0,255,102,0.28)" stroke-width="1"/>
  <text x="33" y="34" font-family="monospace" font-size="13" fill="#00ff66" text-anchor="middle" font-weight="700">C</text>
  <text x="58" y="30" font-family="monospace" font-size="9.5" fill="rgba(255,255,255,0.88)" letter-spacing="2.5" font-weight="700">CAMPAIGN PULSE</text>
  <text x="58" y="46" font-family="monospace" font-size="6" fill="rgba(0,255,102,0.45)" letter-spacing="1.5">COMAA PLATFORM</text>
  <circle cx="390" cy="25" r="10" fill="rgba(0,255,102,0.08)" class="pulse-ring"/>
  <circle cx="390" cy="25" r="4" fill="#00ff66" class="pulse-dot"/>
  <text x="390" y="43" font-family="monospace" font-size="5.5" fill="rgba(0,255,102,0.55)" text-anchor="middle" letter-spacing="1">LIVE</text>

  <!-- CAMPAIGN LABEL -->
  <rect x="18" y="70" width="388" height="34" rx="5" fill="#0e0e0e" stroke="rgba(255,255,255,0.04)" stroke-width="1"/>
  <text x="30" y="82" font-family="monospace" font-size="6" fill="rgba(255,255,255,0.28)" letter-spacing="1.2">ACTIVE CAMPAIGN</text>
  <text x="30" y="97" font-family="-apple-system,sans-serif" font-size="9.5" fill="rgba(255,255,255,0.85)" font-weight="600">SaaS Founders Q2 Outreach</text>
  <rect x="314" y="76" width="84" height="16" rx="4" fill="rgba(0,255,102,0.12)" stroke="rgba(0,255,102,0.4)" stroke-width="0.8"/>
  <circle cx="325" cy="84" r="3" fill="#00ff66" class="pulse-dot"/>
  <text x="362" y="88" font-family="monospace" font-size="6.5" fill="#00ff66" text-anchor="middle" letter-spacing="1">SENDING</text>

  <!-- STATS -->
  <rect x="18" y="114" width="388" height="58" rx="5" fill="#0e0e0e" stroke="rgba(255,255,255,0.04)" stroke-width="1"/>
  <text x="82" y="137" font-family="monospace" font-size="20" fill="#ffffff" font-weight="700" text-anchor="middle">2,847</text>
  <text x="82" y="154" font-family="monospace" font-size="5.5" fill="rgba(255,255,255,0.28)" text-anchor="middle" letter-spacing="1.5">EMAILS SENT</text>
  <line x1="152" y1="124" x2="152" y2="162" stroke="rgba(255,255,255,0.06)" stroke-width="1"/>
  <text x="212" y="137" font-family="monospace" font-size="20" fill="#00ff66" font-weight="700" text-anchor="middle">43%</text>
  <text x="212" y="154" font-family="monospace" font-size="5.5" fill="rgba(255,255,255,0.28)" text-anchor="middle" letter-spacing="1.5">OPEN RATE</text>
  <line x1="272" y1="124" x2="272" y2="162" stroke="rgba(255,255,255,0.06)" stroke-width="1"/>
  <text x="340" y="137" font-family="monospace" font-size="20" fill="#00ff66" font-weight="700" text-anchor="middle">19%</text>
  <text x="340" y="154" font-family="monospace" font-size="5.5" fill="rgba(255,255,255,0.28)" text-anchor="middle" letter-spacing="1.5">REPLY RATE</text>

  <!-- LIVE SEND LOG -->
  <rect x="18" y="182" width="388" height="198" rx="5" fill="#0b0b0b" stroke="rgba(255,255,255,0.04)" stroke-width="1"/>
  <rect x="18" y="182" width="388" height="24" rx="5 5 0 0" fill="#111"/>
  <circle cx="30" cy="194" r="3" fill="#00ff66" class="pulse-dot"/>
  <text x="40" y="198" font-family="monospace" font-size="6.5" fill="rgba(255,255,255,0.55)" letter-spacing="1.5">LIVE SEND LOG</text>
  <text x="398" y="198" font-family="monospace" font-size="6" fill="rgba(0,255,102,0.4)" text-anchor="end" letter-spacing="1">AUTO-REFRESH</text>
  <line x1="18" y1="206" x2="406" y2="206" stroke="rgba(255,255,255,0.05)" stroke-width="1"/>

  <!-- Col headers -->
  <text x="30" y="220" font-family="monospace" font-size="5.5" fill="rgba(255,255,255,0.2)" letter-spacing="1">TIME</text>
  <text x="90" y="220" font-family="monospace" font-size="5.5" fill="rgba(255,255,255,0.2)" letter-spacing="1">RECIPIENT</text>
  <text x="288" y="220" font-family="monospace" font-size="5.5" fill="rgba(255,255,255,0.2)" letter-spacing="1">STATUS</text>
  <line x1="26" y1="224" x2="398" y2="224" stroke="rgba(255,255,255,0.04)" stroke-width="1"/>

  <!-- Row 1 — OPENED -->
  <circle cx="30" cy="237" r="3" fill="#00ff66"/>
  <text x="40" y="241" font-family="monospace" font-size="7" fill="rgba(255,255,255,0.28)">14:23:07</text>
  <text x="90" y="241" font-family="monospace" font-size="7" fill="rgba(255,255,255,0.62)">j.hawkins@nexuscorp.io</text>
  <rect x="284" y="232" width="48" height="12" rx="3" fill="rgba(0,255,102,0.12)" stroke="rgba(0,255,102,0.3)" stroke-width="0.6"/>
  <text x="308" y="241.5" font-family="monospace" font-size="6" fill="#00ff66" text-anchor="middle">OPENED</text>
  <line x1="26" y1="250" x2="398" y2="250" stroke="rgba(255,255,255,0.035)" stroke-width="1"/>

  <!-- Row 2 — REPLIED -->
  <circle cx="30" cy="262" r="3" fill="#00ff66"/>
  <text x="40" y="266" font-family="monospace" font-size="7" fill="rgba(255,255,255,0.28)">14:22:51</text>
  <text x="90" y="266" font-family="monospace" font-size="7" fill="rgba(255,255,255,0.62)">s.chen@orionlabs.co</text>
  <rect x="284" y="257" width="48" height="12" rx="3" fill="rgba(0,255,102,0.18)" stroke="rgba(0,255,102,0.45)" stroke-width="0.6"/>
  <text x="308" y="266.5" font-family="monospace" font-size="6" fill="#00ff66" text-anchor="middle">REPLIED</text>
  <line x1="26" y1="275" x2="398" y2="275" stroke="rgba(255,255,255,0.035)" stroke-width="1"/>

  <!-- Row 3 — SENT -->
  <circle cx="30" cy="287" r="3" fill="rgba(255,255,255,0.25)"/>
  <text x="40" y="291" font-family="monospace" font-size="7" fill="rgba(255,255,255,0.22)">14:22:44</text>
  <text x="90" y="291" font-family="monospace" font-size="7" fill="rgba(255,255,255,0.45)">m.driel@apexdigital.io</text>
  <rect x="284" y="282" width="36" height="12" rx="3" fill="rgba(255,255,255,0.04)" stroke="rgba(255,255,255,0.1)" stroke-width="0.6"/>
  <text x="302" y="291.5" font-family="monospace" font-size="6" fill="rgba(255,255,255,0.32)" text-anchor="middle">SENT</text>
  <line x1="26" y1="300" x2="398" y2="300" stroke="rgba(255,255,255,0.03)" stroke-width="1"/>

  <!-- Row 4 — OPENED -->
  <circle cx="30" cy="312" r="3" fill="#00ff66"/>
  <text x="40" y="316" font-family="monospace" font-size="7" fill="rgba(255,255,255,0.2)">14:22:38</text>
  <text x="90" y="316" font-family="monospace" font-size="7" fill="rgba(255,255,255,0.4)">r.foster@peakvault.com</text>
  <rect x="284" y="307" width="48" height="12" rx="3" fill="rgba(0,255,102,0.09)" stroke="rgba(0,255,102,0.25)" stroke-width="0.6"/>
  <text x="308" y="316.5" font-family="monospace" font-size="6" fill="rgba(0,255,102,0.75)" text-anchor="middle">OPENED</text>
  <line x1="26" y1="325" x2="398" y2="325" stroke="rgba(255,255,255,0.025)" stroke-width="1"/>

  <!-- Row 5 — SENT (faded) -->
  <circle cx="30" cy="337" r="3" fill="rgba(255,255,255,0.15)"/>
  <text x="40" y="341" font-family="monospace" font-size="7" fill="rgba(255,255,255,0.16)">14:22:29</text>
  <text x="90" y="341" font-family="monospace" font-size="7" fill="rgba(255,255,255,0.3)">a.kim@stackforge.dev</text>
  <rect x="284" y="332" width="36" height="12" rx="3" fill="rgba(255,255,255,0.025)"/>
  <text x="302" y="341.5" font-family="monospace" font-size="6" fill="rgba(255,255,255,0.2)" text-anchor="middle">SENT</text>
  <line x1="26" y1="350" x2="398" y2="350" stroke="rgba(255,255,255,0.02)" stroke-width="1"/>

  <!-- Row 6 — very faded -->
  <circle cx="30" cy="362" r="3" fill="rgba(255,255,255,0.07)"/>
  <text x="40" y="366" font-family="monospace" font-size="7" fill="rgba(255,255,255,0.1)">14:22:11</text>
  <text x="90" y="366" font-family="monospace" font-size="7" fill="rgba(255,255,255,0.18)">t.walsh@lumenarc.io</text>
  <rect x="284" y="357" width="36" height="12" rx="3" fill="rgba(255,255,255,0.015)"/>
  <text x="302" y="366.5" font-family="monospace" font-size="6" fill="rgba(255,255,255,0.12)" text-anchor="middle">SENT</text>

  <!-- EMAIL PREVIEW CARD -->
  <rect x="18" y="390" width="388" height="120" rx="5" fill="#0e0e0e" stroke="rgba(0,255,102,0.14)" stroke-width="1"/>
  <rect x="18" y="390" width="388" height="22" rx="5 5 0 0" fill="#111"/>
  <text x="30" y="405" font-family="monospace" font-size="6" fill="rgba(255,255,255,0.3)" letter-spacing="1.2">NEXT EMAIL PREVIEW</text>
  <line x1="18" y1="412" x2="406" y2="412" stroke="rgba(255,255,255,0.05)" stroke-width="1"/>

  <text x="30" y="427" font-family="monospace" font-size="6.5" fill="rgba(255,255,255,0.25)">FROM:</text>
  <text x="76" y="427" font-family="monospace" font-size="6.5" fill="rgba(255,255,255,0.55)">Comaa Outreach &lt;send@comaa.io&gt;</text>

  <text x="30" y="442" font-family="monospace" font-size="6.5" fill="rgba(255,255,255,0.25)">TO:</text>
  <text x="76" y="442" font-family="monospace" font-size="6.5" fill="rgba(255,255,255,0.55)">n.patel@growthstack.io</text>

  <line x1="26" y1="449" x2="398" y2="449" stroke="rgba(255,255,255,0.04)" stroke-width="1"/>

  <text x="30" y="463" font-family="monospace" font-size="6.5" fill="rgba(255,255,255,0.28)">SUBJECT:</text>
  <text x="96" y="463" font-family="-apple-system,sans-serif" font-size="7.5" fill="rgba(255,255,255,0.78)">Quick question about </text>
  <rect x="252" y="455" width="60" height="11" rx="2" fill="rgba(0,255,102,0.12)"/>
  <text x="282" y="463.5" font-family="monospace" font-size="6.5" fill="#00ff66" text-anchor="middle">{company}</text>

  <line x1="26" y1="469" x2="398" y2="469" stroke="rgba(255,255,255,0.04)" stroke-width="1"/>

  <text x="30" y="482" font-family="-apple-system,sans-serif" font-size="7" fill="rgba(255,255,255,0.3)">Hi</text>
  <rect x="44" y="474" width="50" height="11" rx="2" fill="rgba(0,255,102,0.1)"/>
  <text x="69" y="482.5" font-family="monospace" font-size="6.5" fill="#00ff66" text-anchor="middle">{first_name}</text>
  <text x="98" y="482" font-family="-apple-system,sans-serif" font-size="7" fill="rgba(255,255,255,0.3)">, I came across your work and wanted to reach out...</text>

  <text x="30" y="498" font-family="-apple-system,sans-serif" font-size="7" fill="rgba(255,255,255,0.16)">We help companies like yours book qualified meetings at scale.</text>

  <!-- Footer -->
  <text x="212" y="522" font-family="monospace" font-size="5.5" fill="rgba(0,255,102,0.2)" text-anchor="middle" letter-spacing="2.5">COMAA CAMPAIGN ENGINE</text>
</svg>
