<svg width="424" height="530" viewBox="0 0 424 530" fill="none" xmlns="http://www.w3.org/2000/svg">
  <defs>
    <style>
      @keyframes blink { 0%,100%{opacity:1} 50%{opacity:0.15} }
      @keyframes glow  { 0%,100%{opacity:0.25} 50%{opacity:0.6} }
      .live-dot  { animation: blink 1.6s ease-in-out infinite; }
      .live-ring { animation: glow  1.6s ease-in-out infinite; }
    </style>
    <pattern id="g1" x="0" y="0" width="32" height="32" patternUnits="userSpaceOnUse">
      <path d="M32 0L0 0 0 32" fill="none" stroke="rgba(255,255,255,0.025)" stroke-width="0.5"/>
    </pattern>
    <linearGradient id="bar1" x1="0" y1="0" x2="1" y2="0">
      <stop offset="0%" stop-color="#00ff66"/>
      <stop offset="100%" stop-color="rgba(0,255,102,0.25)"/>
    </linearGradient>
    <linearGradient id="bar2" x1="0" y1="0" x2="1" y2="0">
      <stop offset="0%" stop-color="#00ff66"/>
      <stop offset="100%" stop-color="rgba(0,255,102,0.2)"/>
    </linearGradient>
    <linearGradient id="bar3" x1="0" y1="0" x2="1" y2="0">
      <stop offset="0%" stop-color="rgba(0,255,102,0.7)"/>
      <stop offset="100%" stop-color="rgba(0,255,102,0.1)"/>
    </linearGradient>
  </defs>

  <!-- Background -->
  <rect width="424" height="530" fill="#080808"/>
  <rect width="424" height="530" fill="url(#g1)"/>

  <!-- Top accent -->
  <rect x="0" y="0" width="424" height="2" fill="#00ff66"/>

  <!-- ── HEADER ── -->
  <rect x="0" y="2" width="424" height="60" fill="#0c0c0c"/>
  <rect x="0" y="61" width="424" height="1" fill="rgba(0,255,102,0.1)"/>

  <!-- Logo mark -->
  <rect x="18" y="14" width="30" height="30" rx="6" fill="rgba(0,255,102,0.06)" stroke="rgba(0,255,102,0.3)" stroke-width="1"/>
  <text x="33" y="34" font-family="monospace" font-size="13" fill="#00ff66" text-anchor="middle" font-weight="700">C</text>

  <!-- Title -->
  <text x="58" y="30" font-family="monospace" font-size="9.5" fill="rgba(255,255,255,0.88)" letter-spacing="2.5" font-weight="700">PROSPECT INTEL</text>
  <text x="58" y="46" font-family="monospace" font-size="6" fill="rgba(0,255,102,0.45)" letter-spacing="1.5">COMAA PLATFORM</text>

  <!-- Live indicator -->
  <circle cx="390" cy="25" r="10" fill="rgba(0,255,102,0.08)" class="live-ring"/>
  <circle cx="390" cy="25" r="4" fill="#00ff66" class="live-dot"/>
  <text x="390" y="43" font-family="monospace" font-size="5.5" fill="rgba(0,255,102,0.55)" text-anchor="middle" letter-spacing="1">LIVE</text>

  <!-- ── STATS BAR ── -->
  <rect x="18" y="72" width="388" height="50" rx="5" fill="#0e0e0e" stroke="rgba(255,255,255,0.04)" stroke-width="1"/>
  <!-- Stat 1 -->
  <text x="82" y="91" font-family="monospace" font-size="17" fill="#ffffff" font-weight="700" text-anchor="middle">847</text>
  <text x="82" y="108" font-family="monospace" font-size="5.5" fill="rgba(255,255,255,0.3)" text-anchor="middle" letter-spacing="1.5">TOTAL LEADS</text>
  <line x1="152" y1="80" x2="152" y2="112" stroke="rgba(255,255,255,0.06)" stroke-width="1"/>
  <!-- Stat 2 -->
  <text x="212" y="91" font-family="monospace" font-size="17" fill="#00ff66" font-weight="700" text-anchor="middle">124</text>
  <text x="212" y="108" font-family="monospace" font-size="5.5" fill="rgba(255,255,255,0.3)" text-anchor="middle" letter-spacing="1.5">QUALIFIED</text>
  <line x1="272" y1="80" x2="272" y2="112" stroke="rgba(255,255,255,0.06)" stroke-width="1"/>
  <!-- Stat 3 -->
  <text x="340" y="91" font-family="monospace" font-size="17" fill="#00ff66" font-weight="700" text-anchor="middle">38</text>
  <text x="340" y="108" font-family="monospace" font-size="5.5" fill="rgba(255,255,255,0.3)" text-anchor="middle" letter-spacing="1.5">HOT LEADS</text>

  <!-- ── CARD 1 — HOT ── -->
  <rect x="18" y="134" width="388" height="114" rx="6" fill="#0e0e0e" stroke="rgba(0,255,102,0.22)" stroke-width="1"/>
  <rect x="18" y="134" width="3" height="114" rx="3 0 0 3" fill="#00ff66"/>

  <!-- Avatar circle -->
  <circle cx="60" cy="188" r="22" fill="rgba(0,255,102,0.07)" stroke="rgba(0,255,102,0.25)" stroke-width="1.5"/>
  <text x="60" y="193" font-family="monospace" font-size="12" fill="#00ff66" text-anchor="middle" font-weight="700">JH</text>

  <!-- Name / company -->
  <text x="93" y="155" font-family="-apple-system,sans-serif" font-size="11" fill="rgba(255,255,255,0.92)" font-weight="600">James Hawkins</text>
  <text x="93" y="169" font-family="-apple-system,sans-serif" font-size="8" fill="rgba(255,255,255,0.4)">VP of Sales · Nexus Corp</text>

  <!-- Badges -->
  <rect x="93" y="177" width="54" height="13" rx="3" fill="rgba(0,255,102,0.09)" stroke="rgba(0,255,102,0.35)" stroke-width="0.8"/>
  <text x="120" y="186.5" font-family="monospace" font-size="6" fill="#00ff66" text-anchor="middle" letter-spacing="0.5">✓ VERIFIED</text>
  <rect x="153" y="177" width="29" height="13" rx="3" fill="rgba(0,255,102,0.18)" stroke="rgba(0,255,102,0.55)" stroke-width="0.8"/>
  <text x="167.5" y="186.5" font-family="monospace" font-size="6" fill="#00ff66" text-anchor="middle" letter-spacing="0.5">HOT</text>

  <!-- Score bar -->
  <text x="93" y="208" font-family="monospace" font-size="6" fill="rgba(255,255,255,0.28)" letter-spacing="1.2">ICP SCORE</text>
  <rect x="93" y="212" width="204" height="5" rx="2.5" fill="rgba(255,255,255,0.06)"/>
  <rect x="93" y="212" width="185" height="5" rx="2.5" fill="url(#bar1)"/>
  <text x="306" y="218" font-family="monospace" font-size="8" fill="#00ff66" font-weight="700">91</text>
  <text x="317" y="218" font-family="monospace" font-size="5.5" fill="rgba(255,255,255,0.28)">/100</text>

  <!-- Tags -->
  <rect x="93" y="224" width="40" height="13" rx="3" fill="rgba(255,255,255,0.04)"/>
  <text x="113" y="233.5" font-family="monospace" font-size="5.5" fill="rgba(255,255,255,0.32)" text-anchor="middle">SaaS</text>
  <rect x="139" y="224" width="56" height="13" rx="3" fill="rgba(255,255,255,0.04)"/>
  <text x="167" y="233.5" font-family="monospace" font-size="5.5" fill="rgba(255,255,255,0.32)" text-anchor="middle">B2B · 200-500</text>
  <rect x="201" y="224" width="50" height="13" rx="3" fill="rgba(255,255,255,0.04)"/>
  <text x="226" y="233.5" font-family="monospace" font-size="5.5" fill="rgba(255,255,255,0.32)" text-anchor="middle">US · NYC</text>

  <!-- ── CARD 2 — QUALIFIED ── -->
  <rect x="18" y="259" width="388" height="114" rx="6" fill="#0e0e0e" stroke="rgba(255,255,255,0.05)" stroke-width="1"/>
  <rect x="18" y="259" width="3" height="114" rx="3 0 0 3" fill="rgba(0,255,102,0.55)"/>

  <circle cx="60" cy="313" r="22" fill="rgba(255,255,255,0.025)" stroke="rgba(255,255,255,0.09)" stroke-width="1.5"/>
  <text x="60" y="318" font-family="monospace" font-size="12" fill="rgba(255,255,255,0.55)" text-anchor="middle" font-weight="700">SC</text>

  <text x="93" y="280" font-family="-apple-system,sans-serif" font-size="11" fill="rgba(255,255,255,0.88)" font-weight="600">Sarah Chen</text>
  <text x="93" y="294" font-family="-apple-system,sans-serif" font-size="8" fill="rgba(255,255,255,0.38)">Head of Growth · Orion Labs</text>

  <rect x="93" y="302" width="54" height="13" rx="3" fill="rgba(0,255,102,0.07)" stroke="rgba(0,255,102,0.25)" stroke-width="0.8"/>
  <text x="120" y="311.5" font-family="monospace" font-size="6" fill="#00ff66" text-anchor="middle" letter-spacing="0.5">✓ VERIFIED</text>
  <rect x="153" y="302" width="62" height="13" rx="3" fill="rgba(0,255,102,0.09)" stroke="rgba(0,255,102,0.3)" stroke-width="0.8"/>
  <text x="184" y="311.5" font-family="monospace" font-size="6" fill="#00ff66" text-anchor="middle" letter-spacing="0.5">QUALIFIED</text>

  <text x="93" y="333" font-family="monospace" font-size="6" fill="rgba(255,255,255,0.25)" letter-spacing="1.2">ICP SCORE</text>
  <rect x="93" y="337" width="204" height="5" rx="2.5" fill="rgba(255,255,255,0.06)"/>
  <rect x="93" y="337" width="159" height="5" rx="2.5" fill="url(#bar2)"/>
  <text x="306" y="343" font-family="monospace" font-size="8" fill="#00ff66" font-weight="700">78</text>
  <text x="317" y="343" font-family="monospace" font-size="5.5" fill="rgba(255,255,255,0.25)">/100</text>

  <rect x="93" y="349" width="50" height="13" rx="3" fill="rgba(255,255,255,0.04)"/>
  <text x="118" y="358.5" font-family="monospace" font-size="5.5" fill="rgba(255,255,255,0.3)" text-anchor="middle">FinTech</text>
  <rect x="149" y="349" width="56" height="13" rx="3" fill="rgba(255,255,255,0.04)"/>
  <text x="177" y="358.5" font-family="monospace" font-size="5.5" fill="rgba(255,255,255,0.3)" text-anchor="middle">B2B · 50-200</text>
  <rect x="211" y="349" width="58" height="13" rx="3" fill="rgba(255,255,255,0.04)"/>
  <text x="240" y="358.5" font-family="monospace" font-size="5.5" fill="rgba(255,255,255,0.3)" text-anchor="middle">EU · London</text>

  <!-- ── CARD 3 — IN REVIEW ── -->
  <rect x="18" y="384" width="388" height="114" rx="6" fill="#0e0e0e" stroke="rgba(255,255,255,0.04)" stroke-width="1"/>
  <rect x="18" y="384" width="3" height="114" rx="3 0 0 3" fill="rgba(0,255,102,0.22)"/>

  <circle cx="60" cy="438" r="22" fill="rgba(255,255,255,0.02)" stroke="rgba(255,255,255,0.07)" stroke-width="1.5"/>
  <text x="60" y="443" font-family="monospace" font-size="12" fill="rgba(255,255,255,0.38)" text-anchor="middle" font-weight="700">MD</text>

  <text x="93" y="405" font-family="-apple-system,sans-serif" font-size="11" fill="rgba(255,255,255,0.78)" font-weight="600">Marcus Driel</text>
  <text x="93" y="419" font-family="-apple-system,sans-serif" font-size="8" fill="rgba(255,255,255,0.32)">Co-Founder · Apex Digital</text>

  <rect x="93" y="427" width="62" height="13" rx="3" fill="rgba(255,255,255,0.04)" stroke="rgba(255,255,255,0.09)" stroke-width="0.8"/>
  <text x="124" y="436.5" font-family="monospace" font-size="6" fill="rgba(255,255,255,0.38)" text-anchor="middle" letter-spacing="0.5">IN REVIEW</text>

  <text x="93" y="458" font-family="monospace" font-size="6" fill="rgba(255,255,255,0.22)" letter-spacing="1.2">ICP SCORE</text>
  <rect x="93" y="462" width="204" height="5" rx="2.5" fill="rgba(255,255,255,0.05)"/>
  <rect x="93" y="462" width="132" height="5" rx="2.5" fill="url(#bar3)"/>
  <text x="306" y="468" font-family="monospace" font-size="8" fill="rgba(0,255,102,0.65)" font-weight="700">65</text>
  <text x="317" y="468" font-family="monospace" font-size="5.5" fill="rgba(255,255,255,0.22)">/100</text>

  <rect x="93" y="474" width="44" height="13" rx="3" fill="rgba(255,255,255,0.03)"/>
  <text x="115" y="483.5" font-family="monospace" font-size="5.5" fill="rgba(255,255,255,0.25)" text-anchor="middle">Agency</text>
  <rect x="143" y="474" width="56" height="13" rx="3" fill="rgba(255,255,255,0.03)"/>
  <text x="171" y="483.5" font-family="monospace" font-size="5.5" fill="rgba(255,255,255,0.25)" text-anchor="middle">B2B · 10-50</text>
  <rect x="205" y="474" width="52" height="13" rx="3" fill="rgba(255,255,255,0.03)"/>
  <text x="231" y="483.5" font-family="monospace" font-size="5.5" fill="rgba(255,255,255,0.25)" text-anchor="middle">US · Austin</text>

  <!-- Footer label -->
  <text x="212" y="522" font-family="monospace" font-size="5.5" fill="rgba(0,255,102,0.2)" text-anchor="middle" letter-spacing="2.5">COMAA INTELLIGENCE PLATFORM</text>
</svg>
